<svg width="528" height="386" viewBox="0 0 528 386" fill="none" xmlns="http://www.w3.org/2000/svg">
<path d="M188 207.06L228 180V279L188 249.96V207.06Z" fill="#089A5B"/>
<path d="M244 168.431L285 138V292.138L264.5 310L244 292.138V168.431Z" fill="#089A5B"/>
<path d="M301 126.255L342 94V248.316L301 277V126.255Z" fill="#089A5B"/>
<path d="M528 291C369.6 291 297 348.153 297 348.153C297 366.294 282.225 381 264 381C245.775 381 231 366.294 231 348.153C231 348.153 158.4 291 0 291" stroke="#FFA700" stroke-width="10"/>
<path d="M16.9145 270.147L22.1856 258.287C22.1856 258.287 104.547 278.712 158.577 301.115C103.111 287.545 62.3782 279.371 16.9145 270.147Z" fill="#004227"/>
<path d="M26.139 249.062L31.4102 237.202C31.4102 237.202 109.16 258.287 158.577 285.96C107.723 267.119 77.5328 260.922 26.139 249.062Z" fill="#004227"/>
<path d="M35.3635 227.978L40.6347 216.117C40.6347 216.117 109.278 238.912 158.577 270.147C107.842 247.744 83.4628 241.814 35.3635 227.978Z" fill="#004227"/>
<path d="M511.086 270.147L505.814 258.287C505.814 258.287 423.453 278.712 369.423 301.115C424.889 287.545 465.622 279.371 511.086 270.147Z" fill="#004227"/>
<path d="M501.861 249.062L496.59 237.202C496.59 237.202 418.84 258.287 369.423 285.96C420.277 267.119 450.467 260.922 501.861 249.062Z" fill="#004227"/>
<path d="M492.636 227.978L487.365 216.117C487.365 216.117 418.722 238.912 369.423 270.147C420.158 247.744 444.537 241.814 492.636 227.978Z" fill="#004227"/>
<path d="M264.341 336V319.655C180.966 244.159 130.77 221.991 43 201.32C145.131 239.513 194.3 270.177 264.341 336Z" fill="#FFA700"/>
<path d="M264.341 336V319.495C348.213 243.258 398.707 220.873 487 200C384.261 238.567 334.8 269.532 264.341 336Z" fill="#FFA700"/>
<path d="M146.002 188.088C119.045 188.088 99 159.106 99 159.106C99 159.106 107.986 215 146.002 215C184.018 215 404 34 404 34C404 34 172.959 188.088 146.002 188.088Z" fill="#08429A"/>
<path d="M405.566 53.0276L429.724 12.1138L385.237 28.8L408.525 29.9021L405.566 53.0276Z" fill="#FFA700"/>
</svg>
