<svg width="800" height="800" viewBox="0 0 800 800" fill="none" xmlns="http://www.w3.org/2000/svg">
<rect width="800" height="800" fill="white"/>
<path d="M324 416.06L364 389V488L324 458.96V416.06Z" fill="#089A5B"/>
<path d="M380 377.431L421 347V501.138L400.5 519L380 501.138V377.431Z" fill="#089A5B"/>
<path d="M437 335.255L478 303V457.316L437 486V335.255Z" fill="#089A5B"/>
<path d="M664 500C505.6 500 433 557.153 433 557.153C433 575.294 418.225 590 400 590C381.775 590 367 575.294 367 557.153C367 557.153 294.4 500 136 500" stroke="#FFA700" stroke-width="10"/>
<path d="M152.914 479.147L158.186 467.287C158.186 467.287 240.547 487.712 294.577 510.115C239.111 496.545 198.378 488.371 152.914 479.147Z" fill="#004227"/>
<path d="M162.139 458.062L167.41 446.202C167.41 446.202 245.16 467.287 294.577 494.96C243.723 476.119 213.533 469.922 162.139 458.062Z" fill="#004227"/>
<path d="M171.364 436.978L176.635 425.117C176.635 425.117 245.278 447.912 294.577 479.147C243.842 456.744 219.463 450.814 171.364 436.978Z" fill="#004227"/>
<path d="M647.086 479.147L641.814 467.287C641.814 467.287 559.453 487.712 505.423 510.115C560.889 496.545 601.622 488.371 647.086 479.147Z" fill="#004227"/>
<path d="M637.861 458.062L632.59 446.202C632.59 446.202 554.84 467.287 505.423 494.96C556.277 476.119 586.467 469.922 637.861 458.062Z" fill="#004227"/>
<path d="M628.636 436.978L623.365 425.117C623.365 425.117 554.722 447.912 505.423 479.147C556.158 456.744 580.537 450.814 628.636 436.978Z" fill="#004227"/>
<path d="M400.341 545V528.655C316.966 453.159 266.77 430.991 179 410.32C281.131 448.513 330.3 479.177 400.341 545Z" fill="#FFA700"/>
<path d="M400.341 545V528.495C484.213 452.258 534.707 429.873 623 409C520.261 447.567 470.8 478.532 400.341 545Z" fill="#FFA700"/>
<path d="M282.002 397.088C255.045 397.088 235 368.106 235 368.106C235 368.106 243.986 424 282.002 424C320.018 424 540 243 540 243C540 243 308.959 397.088 282.002 397.088Z" fill="#08429A"/>
<path d="M541.566 262.028L565.724 221.114L521.237 237.8L544.525 238.902L541.566 262.028Z" fill="#FFA700"/>
</svg>
