<svg width="1656" height="518" viewBox="0 0 1656 518" fill="none" xmlns="http://www.w3.org/2000/svg">
<path d="M814.74 347.14C819.807 351.953 822.34 357.4 822.34 363.48C822.34 369.307 820.06 374.5 815.5 379.06C811.193 383.367 806 385.52 799.92 385.52C793.587 385.52 787.76 382.86 782.44 377.54L655.9 258.98V361.58C655.9 368.927 653.62 374.88 649.06 379.44C644.753 384 638.8 386.28 631.2 386.28C623.853 386.28 617.9 384 613.34 379.44C609.033 374.88 606.88 368.927 606.88 361.58V138.52C606.88 131.173 609.033 125.347 613.34 121.04C617.9 116.48 623.853 114.2 631.2 114.2C638.8 114.2 644.753 116.48 649.06 121.04C653.62 125.347 655.9 131.173 655.9 138.52V236.18L778.26 121.42C782.82 116.86 788.013 114.58 793.84 114.58C799.667 114.58 804.733 116.86 809.04 121.42C813.6 125.727 815.88 130.793 815.88 136.62C815.88 142.447 813.347 147.767 808.28 152.58L706.06 246.06L814.74 347.14ZM934.119 193.62C959.959 193.62 979.086 200.08 991.499 213C1004.17 225.667 1010.5 245.047 1010.5 271.14V363.86C1010.5 370.7 1008.47 376.147 1004.42 380.2C1000.37 384 994.793 385.9 987.699 385.9C981.113 385.9 975.666 383.873 971.359 379.82C967.306 375.767 965.279 370.447 965.279 363.86V355.5C960.973 365.38 954.133 373.107 944.759 378.68C935.639 384.253 924.999 387.04 912.839 387.04C900.426 387.04 889.153 384.507 879.019 379.44C868.886 374.373 860.906 367.407 855.079 358.54C849.253 349.673 846.339 339.793 846.339 328.9C846.339 315.22 849.759 304.453 856.599 296.6C863.693 288.747 875.093 283.047 890.799 279.5C906.506 275.953 928.166 274.18 955.779 274.18H965.279V265.44C965.279 253.027 962.619 244.033 957.299 238.46C951.979 232.633 943.366 229.72 931.459 229.72C924.113 229.72 916.639 230.86 909.039 233.14C901.439 235.167 892.446 238.207 882.059 242.26C875.473 245.553 870.659 247.2 867.619 247.2C863.059 247.2 859.259 245.553 856.219 242.26C853.433 238.967 852.039 234.66 852.039 229.34C852.039 225.033 853.053 221.36 855.079 218.32C857.359 215.027 861.033 211.987 866.099 209.2C874.966 204.387 885.479 200.587 897.639 197.8C910.053 195.013 922.213 193.62 934.119 193.62ZM922.339 352.84C935.006 352.84 945.266 348.66 953.119 340.3C961.226 331.687 965.279 320.667 965.279 307.24V299.26H958.439C941.466 299.26 928.293 300.02 918.919 301.54C909.546 303.06 902.833 305.72 898.779 309.52C894.726 313.32 892.699 318.513 892.699 325.1C892.699 333.207 895.486 339.92 901.059 345.24C906.886 350.307 913.979 352.84 922.339 352.84ZM1126.03 387.04C1098.42 387.04 1076.13 381.593 1059.15 370.7C1051.05 365.887 1046.99 359.047 1046.99 350.18C1046.99 345.113 1048.39 341.06 1051.17 338.02C1053.96 334.727 1057.38 333.08 1061.43 333.08C1065.74 333.08 1071.69 335.107 1079.29 339.16C1087.4 342.96 1094.75 345.873 1101.33 347.9C1108.17 349.927 1116.79 350.94 1127.17 350.94C1137.81 350.94 1146.05 349.167 1151.87 345.62C1157.95 342.073 1160.99 337.133 1160.99 330.8C1160.99 326.493 1159.73 323.073 1157.19 320.54C1154.91 318.007 1150.61 315.727 1144.27 313.7C1138.19 311.42 1128.82 308.887 1116.15 306.1C1093.61 301.54 1077.39 295.08 1067.51 286.72C1057.89 278.36 1053.07 266.833 1053.07 252.14C1053.07 240.993 1056.37 230.987 1062.95 222.12C1069.54 213 1078.53 206.033 1089.93 201.22C1101.59 196.153 1114.76 193.62 1129.45 193.62C1140.09 193.62 1150.35 195.013 1160.23 197.8C1170.11 200.333 1178.98 204.133 1186.83 209.2C1194.94 214.267 1198.99 220.98 1198.99 229.34C1198.99 234.407 1197.6 238.713 1194.81 242.26C1192.03 245.553 1188.61 247.2 1184.55 247.2C1181.77 247.2 1178.98 246.693 1176.19 245.68C1173.66 244.413 1170.37 242.64 1166.31 240.36C1158.97 236.56 1152.63 233.773 1147.31 232C1141.99 229.973 1135.41 228.96 1127.55 228.96C1118.18 228.96 1110.71 230.86 1105.13 234.66C1099.81 238.46 1097.15 243.653 1097.15 250.24C1097.15 256.573 1099.94 261.387 1105.51 264.68C1111.09 267.973 1121.85 271.267 1137.81 274.56C1154.79 278.107 1168.09 282.16 1177.71 286.72C1187.34 291.28 1194.18 296.98 1198.23 303.82C1202.54 310.66 1204.69 319.4 1204.69 330.04C1204.69 347.267 1197.47 361.073 1183.03 371.46C1168.85 381.847 1149.85 387.04 1126.03 387.04Z" fill="#089A5B"/>
<path d="M1243.8 385.2C1239.53 385.2 1236 383.8 1233.2 381C1230.4 378.067 1229 374.467 1229 370.2C1229 365.933 1230.4 362.4 1233.2 359.6C1236 356.667 1239.53 355.2 1243.8 355.2C1248.07 355.2 1251.6 356.667 1254.4 359.6C1257.2 362.4 1258.6 365.933 1258.6 370.2C1258.6 374.467 1257.2 378.067 1254.4 381C1251.6 383.8 1248.07 385.2 1243.8 385.2ZM1397.81 283.8C1408.48 283.8 1416.61 287 1422.21 293.4C1427.94 299.667 1430.81 309.867 1430.81 324V373.2C1430.81 377.067 1429.61 380.067 1427.21 382.2C1424.94 384.2 1421.94 385.2 1418.21 385.2C1414.61 385.2 1411.61 384.2 1409.21 382.2C1406.94 380.067 1405.81 377.067 1405.81 373.2V324C1405.81 316.667 1404.48 311.467 1401.81 308.4C1399.28 305.2 1395.34 303.6 1390.01 303.6C1383.48 303.6 1378.28 305.867 1374.41 310.4C1370.54 314.8 1368.61 320.867 1368.61 328.6V373.2C1368.61 377.067 1367.41 380.067 1365.01 382.2C1362.74 384.2 1359.81 385.2 1356.21 385.2C1352.61 385.2 1349.61 384.2 1347.21 382.2C1344.81 380.067 1343.61 377.067 1343.61 373.2V324C1343.61 316.667 1342.28 311.467 1339.61 308.4C1337.08 305.2 1333.14 303.6 1327.81 303.6C1321.28 303.6 1316.08 305.867 1312.21 310.4C1308.48 314.8 1306.61 320.867 1306.61 328.6V373.2C1306.61 377.067 1305.41 380.067 1303.01 382.2C1300.61 384.2 1297.61 385.2 1294.01 385.2C1290.41 385.2 1287.41 384.2 1285.01 382.2C1282.74 380.067 1281.61 377.067 1281.61 373.2V295.8C1281.61 292.067 1282.81 289.2 1285.21 287.2C1287.61 285.2 1290.61 284.2 1294.21 284.2C1297.68 284.2 1300.48 285.2 1302.61 287.2C1304.88 289.067 1306.01 291.8 1306.01 295.4V300.2C1309.08 294.867 1313.14 290.8 1318.21 288C1323.41 285.2 1329.34 283.8 1336.01 283.8C1350.68 283.8 1360.48 289.933 1365.41 302.2C1368.34 296.6 1372.68 292.133 1378.41 288.8C1384.14 285.467 1390.61 283.8 1397.81 283.8ZM1533.62 357.2C1535.89 357.2 1537.69 358.067 1539.02 359.8C1540.49 361.533 1541.22 363.867 1541.22 366.8C1541.22 370.933 1538.75 374.4 1533.82 377.2C1529.29 379.733 1524.15 381.8 1518.42 383.4C1512.69 384.867 1507.22 385.6 1502.02 385.6C1486.29 385.6 1473.82 381.067 1464.62 372C1455.42 362.933 1450.82 350.533 1450.82 334.8C1450.82 324.8 1452.82 315.933 1456.82 308.2C1460.82 300.467 1466.42 294.467 1473.62 290.2C1480.95 285.933 1489.22 283.8 1498.42 283.8C1507.22 283.8 1514.89 285.733 1521.42 289.6C1527.95 293.467 1533.02 298.933 1536.62 306C1540.22 313.067 1542.02 321.4 1542.02 331C1542.02 336.733 1539.49 339.6 1534.42 339.6H1475.42C1476.22 348.8 1478.82 355.6 1483.22 360C1487.62 364.267 1494.02 366.4 1502.42 366.4C1506.69 366.4 1510.42 365.867 1513.62 364.8C1516.95 363.733 1520.69 362.267 1524.82 360.4C1528.82 358.267 1531.75 357.2 1533.62 357.2ZM1499.02 301.4C1492.22 301.4 1486.75 303.533 1482.62 307.8C1478.62 312.067 1476.22 318.2 1475.42 326.2H1520.62C1520.35 318.067 1518.35 311.933 1514.62 307.8C1510.89 303.533 1505.69 301.4 1499.02 301.4ZM1639.87 357.2C1642.14 357.2 1643.94 358.067 1645.27 359.8C1646.74 361.533 1647.47 363.867 1647.47 366.8C1647.47 370.933 1645 374.4 1640.07 377.2C1635.54 379.733 1630.4 381.8 1624.67 383.4C1618.94 384.867 1613.47 385.6 1608.27 385.6C1592.54 385.6 1580.07 381.067 1570.87 372C1561.67 362.933 1557.07 350.533 1557.07 334.8C1557.07 324.8 1559.07 315.933 1563.07 308.2C1567.07 300.467 1572.67 294.467 1579.87 290.2C1587.2 285.933 1595.47 283.8 1604.67 283.8C1613.47 283.8 1621.14 285.733 1627.67 289.6C1634.2 293.467 1639.27 298.933 1642.87 306C1646.47 313.067 1648.27 321.4 1648.27 331C1648.27 336.733 1645.74 339.6 1640.67 339.6H1581.67C1582.47 348.8 1585.07 355.6 1589.47 360C1593.87 364.267 1600.27 366.4 1608.67 366.4C1612.94 366.4 1616.67 365.867 1619.87 364.8C1623.2 363.733 1626.94 362.267 1631.07 360.4C1635.07 358.267 1638 357.2 1639.87 357.2ZM1605.27 301.4C1598.47 301.4 1593 303.533 1588.87 307.8C1584.87 312.067 1582.47 318.2 1581.67 326.2H1626.87C1626.6 318.067 1624.6 311.933 1620.87 307.8C1617.14 303.533 1611.94 301.4 1605.27 301.4Z" fill="#FFA700"/>
<path d="M188 259.06L228 232V331L188 301.96V259.06Z" fill="#089A5B"/>
<path d="M244 220.431L285 190V344.138L264.5 362L244 344.138V220.431Z" fill="#089A5B"/>
<path d="M301 178.255L342 146V300.316L301 329V178.255Z" fill="#089A5B"/>
<path d="M528 343C369.6 343 297 400.153 297 400.153C297 418.294 282.225 433 264 433C245.775 433 231 418.294 231 400.153C231 400.153 158.4 343 0 343" stroke="#FFA700" stroke-width="10"/>
<path d="M16.9145 322.147L22.1856 310.287C22.1856 310.287 104.547 330.712 158.577 353.115C103.111 339.545 62.3782 331.371 16.9145 322.147Z" fill="#004227"/>
<path d="M26.139 301.062L31.4102 289.202C31.4102 289.202 109.16 310.287 158.577 337.96C107.723 319.119 77.5328 312.922 26.139 301.062Z" fill="#004227"/>
<path d="M35.3635 279.978L40.6347 268.117C40.6347 268.117 109.278 290.912 158.577 322.147C107.842 299.744 83.4628 293.814 35.3635 279.978Z" fill="#004227"/>
<path d="M511.085 322.147L505.814 310.287C505.814 310.287 423.452 330.712 369.423 353.115C424.889 339.545 465.622 331.371 511.085 322.147Z" fill="#004227"/>
<path d="M501.861 301.062L496.59 289.202C496.59 289.202 418.84 310.287 369.423 337.96C420.277 319.119 450.467 312.922 501.861 301.062Z" fill="#004227"/>
<path d="M492.636 279.978L487.365 268.117C487.365 268.117 418.722 290.912 369.423 322.147C420.158 299.744 444.537 293.814 492.636 279.978Z" fill="#004227"/>
<path d="M264.341 388V371.655C180.966 296.159 130.77 273.991 43 253.32C145.131 291.513 194.3 322.177 264.341 388Z" fill="#FFA700"/>
<path d="M264.341 388V371.495C348.213 295.258 398.707 272.873 487 252C384.261 290.567 334.8 321.532 264.341 388Z" fill="#FFA700"/>
<path d="M146.002 240.088C119.045 240.088 99 211.106 99 211.106C99 211.106 107.986 267 146.002 267C184.018 267 404 86 404 86C404 86 172.959 240.088 146.002 240.088Z" fill="#08429A"/>
<path d="M405.566 105.028L429.724 64.1138L385.237 80.8L408.525 81.9021L405.566 105.028Z" fill="#FFA700"/>
</svg>
